<svg width="31" height="31" viewBox="0 0 31 31" fill="none" xmlns="http://www.w3.org/2000/svg">
<path d="M20.3954 18.0346L12.2714 20.2474C11.9508 20.3352 11.6119 20.3304 11.2938 20.2336C10.9758 20.1368 10.6917 19.952 10.4745 19.7004C10.2188 19.4013 10.0524 19.0364 9.99405 18.6474C9.93571 18.2583 9.98785 17.8606 10.1445 17.4997L12.8662 11.4726C12.9755 11.2453 13.1324 11.0441 13.3263 10.8827C13.5202 10.7213 13.7465 10.6034 13.9899 10.5371C14.2333 10.4708 14.4881 10.4576 14.737 10.4984C14.9859 10.5392 15.2232 10.633 15.4327 10.7735L20.835 14.5879C21.1531 14.8194 21.3997 15.1357 21.5467 15.5006C21.6938 15.8656 21.7353 16.2644 21.6667 16.6518C21.607 16.9789 21.4559 17.2823 21.2309 17.527C21.0059 17.7717 20.7163 17.9477 20.3954 18.0346Z" fill="#FCA311"/>
</svg>
