<svg width="15" height="15" viewBox="0 0 15 15" fill="none" xmlns="http://www.w3.org/2000/svg">
<path d="M6.4824 13.5507L1.13649 7.04549C0.925062 6.78898 0.790605 6.47784 0.748678 6.14808C0.70675 5.81832 0.759067 5.48343 0.899572 5.18217C1.06773 4.82649 1.33242 4.5252 1.66349 4.31263C1.99455 4.10007 2.37867 3.98478 2.77207 3.9799L9.38523 3.99448C9.6374 4.00109 9.88521 4.06183 10.1119 4.17259C10.3385 4.28335 10.5387 4.44154 10.6989 4.63643C10.859 4.83133 10.9754 5.05838 11.0402 5.30219C11.1049 5.546 11.1165 5.80089 11.0741 6.04956L9.80684 12.5402C9.72582 12.9252 9.53828 13.2797 9.26558 13.5633C8.99289 13.8469 8.64602 14.0482 8.26449 14.1442C7.94171 14.2237 7.60303 14.2101 7.28765 14.1051C6.97227 14 6.69308 13.8078 6.4824 13.5507Z" fill="#FCA311"/>
</svg>
