<svg width="34" height="34" viewBox="0 0 34 34" fill="none" xmlns="http://www.w3.org/2000/svg">
<path d="M16.0922 11.1146L22.6572 16.3869C22.9167 16.5946 23.1121 16.8716 23.2206 17.1858C23.3292 17.5 23.3466 17.8385 23.2708 18.1621C23.1791 18.5447 22.9817 18.8938 22.7012 19.1697C22.4207 19.4456 22.0683 19.6371 21.6843 19.7225L15.2083 21.0628C14.9602 21.108 14.7052 21.0993 14.4606 21.0373C14.2161 20.9753 13.9878 20.8615 13.7911 20.7035C13.5944 20.5456 13.434 20.3472 13.3206 20.1218C13.2073 19.8964 13.1438 19.6493 13.1343 19.3972L13.0452 12.7846C13.0457 12.3912 13.1566 12.0058 13.3654 11.6724C13.5743 11.3389 13.8726 11.0709 14.2263 10.8987C14.526 10.7548 14.8603 10.6987 15.1905 10.7369C15.5207 10.7751 15.8333 10.9061 16.0922 11.1146Z" fill="#FCA311"/>
</svg>
