<svg width="26" height="27" viewBox="0 0 26 27" fill="none" xmlns="http://www.w3.org/2000/svg">
<path d="M17.13 9.48835L16.5215 17.8863C16.4979 18.2179 16.381 18.536 16.1841 18.8039C15.9873 19.0718 15.7186 19.2784 15.4092 19.3999C15.0422 19.5418 14.6428 19.5777 14.2564 19.5036C13.87 19.4295 13.5122 19.2484 13.2238 18.9809L8.44137 14.4133C8.26318 14.2347 8.12546 14.0199 8.03754 13.7835C7.94962 13.547 7.91355 13.2944 7.93178 13.0428C7.95001 12.7912 8.02212 12.5465 8.14321 12.3252C8.2643 12.1039 8.43155 11.9112 8.63362 11.7602L14.0246 7.92983C14.3486 7.70666 14.7288 7.57899 15.1218 7.56138C15.5148 7.54377 15.9049 7.63693 16.2476 7.83024C16.5362 7.99507 16.7723 8.23829 16.9285 8.53173C17.0847 8.82517 17.1545 9.15684 17.13 9.48835Z" fill="#FCA311"/>
</svg>
