<svg width="24" height="24" viewBox="0 0 24 24" fill="none" xmlns="http://www.w3.org/2000/svg">
<path d="M6.46261 19.0029C6.09085 19.0029 5.71908 18.866 5.42558 18.5725C4.85814 18.005 4.85814 17.0658 5.42558 16.4984L16.5004 5.42362C17.0678 4.85619 18.007 4.85619 18.5744 5.42362C19.1419 5.99106 19.1419 6.93026 18.5744 7.4977L7.49965 18.5725C7.22572 18.866 6.83438 19.0029 6.46261 19.0029Z" fill="#8A8A8A"/>
<path d="M17.5374 19.0029C17.1656 19.0029 16.7939 18.866 16.5004 18.5725L5.42558 7.4977C4.85814 6.93026 4.85814 5.99106 5.42558 5.42362C5.99301 4.85619 6.93221 4.85619 7.49965 5.42362L18.5744 16.4984C19.1419 17.0658 19.1419 18.005 18.5744 18.5725C18.2809 18.866 17.9092 19.0029 17.5374 19.0029Z" fill="#8A8A8A"/>
</svg>
