<svg width="1215" height="236" viewBox="0 0 1215 236" fill="none" xmlns="http://www.w3.org/2000/svg">
<path d="M18 154C18 154 53.4584 112.788 80 90.5001C102.859 71.3047 142.5 46.5001 142.5 46.5001L146.18 44.3698C162.53 34.9038 180.695 29.1125 199.522 27.5266C246.501 23.569 341.699 16.0498 409.5 14.0001C486.203 11.6814 529.316 11.1212 606 14.0001C724.592 18.4524 791.185 25.083 908.5 43.0001C967.618 52.0291 1047.79 68.6409 1095.76 78.9594C1122.55 84.7218 1146.58 99.3081 1164.3 120.215C1179.15 137.739 1188.94 158.984 1192.6 181.661L1195 196.5" stroke="#CFCFCF" stroke-dasharray="4 4"/>
<path d="M602.999 9.78675L602.667 18.2002C602.655 18.5324 602.548 18.8542 602.36 19.1284C602.172 19.4026 601.911 19.618 601.605 19.7496C601.243 19.9035 600.845 19.9525 600.457 19.8912C600.068 19.8299 599.704 19.6606 599.407 19.4027L594.477 14.9951C594.293 14.8225 594.148 14.6123 594.053 14.3789C593.957 14.1455 593.913 13.8942 593.923 13.6422C593.933 13.3901 593.997 13.1431 594.11 12.9179C594.224 12.6928 594.385 12.4947 594.582 12.3371L599.844 8.33131C600.16 8.0976 600.536 7.95748 600.928 7.92694C601.321 7.8964 601.714 7.97667 602.062 8.15859C602.356 8.31383 602.6 8.54914 602.766 8.83728C602.932 9.12542 603.013 9.45461 602.999 9.78675Z" fill="#FCA311"/>
<path d="M73.4831 101.551L68.1372 95.0455C67.9258 94.789 67.7913 94.4778 67.7494 94.1481C67.7075 93.8183 67.7598 93.4834 67.9003 93.1822C68.0685 92.8265 68.3332 92.5252 68.6642 92.3126C68.9953 92.1001 69.3794 91.9848 69.7728 91.9799L76.386 91.9945C76.6381 92.0011 76.8859 92.0618 77.1126 92.1726C77.3392 92.2834 77.5394 92.4415 77.6996 92.6364C77.8597 92.8313 77.9761 93.0584 78.0409 93.3022C78.1056 93.546 78.1172 93.8009 78.0748 94.0496L76.8076 100.54C76.7266 100.925 76.539 101.28 76.2663 101.563C75.9936 101.847 75.6467 102.048 75.2652 102.144C74.9424 102.224 74.6038 102.21 74.2884 102.105C73.973 102 73.6938 101.808 73.4831 101.551Z" fill="#FCA311"/>
<path d="M1194.84 170.486L1186.72 172.699C1186.4 172.786 1186.06 172.782 1185.74 172.685C1185.43 172.588 1185.14 172.403 1184.92 172.152C1184.67 171.852 1184.5 171.488 1184.44 171.099C1184.38 170.709 1184.44 170.312 1184.59 169.951L1187.32 163.924C1187.42 163.696 1187.58 163.495 1187.78 163.334C1187.97 163.172 1188.2 163.055 1188.44 162.988C1188.68 162.922 1188.94 162.909 1189.19 162.95C1189.44 162.99 1189.67 163.084 1189.88 163.225L1195.28 167.039C1195.6 167.271 1195.85 167.587 1196 167.952C1196.14 168.317 1196.18 168.716 1196.12 169.103C1196.06 169.43 1195.91 169.733 1195.68 169.978C1195.46 170.223 1195.17 170.399 1194.84 170.486Z" fill="#FCA311"/>
</svg>
