<svg width="620" height="221" viewBox="0 0 620 221" fill="none" xmlns="http://www.w3.org/2000/svg">
<path d="M0.416504 220.291L66.2143 121.149C71.6617 112.942 78.0991 105.436 85.3812 98.8011L138.772 50.158C153.312 36.9113 170.807 27.4014 190.078 23.4627C240.2 13.2187 344.116 -3.71541 414.917 14.2907C451.18 23.5134 494.797 42.7525 526.511 58.091C554.669 71.7094 575.001 97.0392 584.087 126.969L612.417 220.291" stroke="#CFCFCF" stroke-dasharray="4 4"/>
<path d="M98.1957 81.3539L104.09 87.3664C104.323 87.6035 104.484 87.9017 104.555 88.2265C104.626 88.5513 104.603 88.8895 104.489 89.2019C104.353 89.5709 104.116 89.8942 103.804 90.1349C103.493 90.3756 103.121 90.5241 102.729 90.5634L96.1401 91.1275C95.8883 91.1429 95.6361 91.1041 95.4007 91.0136C95.1652 90.9231 94.9519 90.783 94.7753 90.6029C94.5987 90.4228 94.4629 90.2068 94.3771 89.9695C94.2913 89.7323 94.2575 89.4794 94.2779 89.228L94.9724 82.6514C95.0195 82.2608 95.1753 81.8912 95.4221 81.5849C95.6689 81.2785 95.9969 81.0476 96.3685 80.9186C96.6831 80.8112 97.0217 80.7951 97.345 80.8721C97.6684 80.9492 97.9633 81.1162 98.1957 81.3539Z" fill="#FCA311"/>
<path d="M421.651 11.5198L419.559 19.676C419.477 19.9981 419.306 20.2904 419.064 20.519C418.823 20.7476 418.522 20.9032 418.196 20.9678C417.809 21.0422 417.41 21.0066 417.043 20.865C416.676 20.7235 416.356 20.4816 416.12 20.1671L412.225 14.8223C412.081 14.6149 411.984 14.3791 411.94 14.1308C411.895 13.8825 411.904 13.6275 411.967 13.3832C412.03 13.1388 412.144 12.9108 412.303 12.7145C412.461 12.5183 412.66 12.3584 412.886 12.2457L418.871 9.43425C419.23 9.2722 419.627 9.21413 420.017 9.26665C420.407 9.31917 420.774 9.48016 421.077 9.73128C421.332 9.94479 421.521 10.2261 421.622 10.5426C421.724 10.8591 421.734 11.198 421.651 11.5198Z" fill="#FCA311"/>
<path d="M609.34 195.624L601.285 198.076C600.967 198.173 600.629 198.178 600.308 198.091C599.987 198.003 599.698 197.827 599.473 197.582C599.209 197.291 599.032 196.931 598.962 196.544C598.892 196.156 598.932 195.757 599.078 195.392L601.621 189.287C601.723 189.057 601.874 188.851 602.063 188.684C602.252 188.517 602.475 188.392 602.716 188.319C602.958 188.245 603.212 188.225 603.462 188.258C603.712 188.292 603.952 188.378 604.165 188.513L609.678 192.166C610.003 192.388 610.259 192.697 610.416 193.057C610.574 193.417 610.627 193.815 610.57 194.204C610.52 194.533 610.378 194.841 610.161 195.092C609.943 195.343 609.659 195.527 609.34 195.624Z" fill="#FCA311"/>
</svg>
