<svg width="340" height="140" viewBox="0 0 340 140" fill="none" xmlns="http://www.w3.org/2000/svg">
<path d="M1.25684 139.486C-3.37655 137.738 11.846 103.006 27.7618 69.6107C46.2234 30.8735 84.9892 6.08188 127.9 5.7911C157.868 5.58802 192.629 6.08421 221.605 8.48604C242.822 10.2447 266.352 22.2324 284.2 33.4583C303.682 45.7119 316.44 65.6596 323.235 87.6481L339.257 139.486" stroke="#CFCFCF" stroke-dasharray="3 3"/>
<path d="M223.355 6.12123L222.599 11.1836C222.57 11.3835 222.484 11.5709 222.352 11.7242C222.221 11.8775 222.048 11.9903 221.855 12.0497C221.626 12.1188 221.382 12.1221 221.152 12.0594C220.921 11.9967 220.712 11.8704 220.55 11.6949L217.862 8.70558C217.762 8.58912 217.688 8.45258 217.646 8.3052C217.604 8.15783 217.593 8.00306 217.616 7.85139C217.639 7.69973 217.694 7.5547 217.777 7.42615C217.861 7.2976 217.971 7.18852 218.101 7.10631L221.545 5.03325C221.752 4.91293 221.988 4.85308 222.227 4.86054C222.466 4.86801 222.698 4.94247 222.897 5.07545C223.064 5.18869 223.196 5.347 223.277 5.53208C223.359 5.71715 223.386 5.92142 223.355 6.12123Z" fill="#FCA311"/>
<path d="M36.0393 50.243L40.0302 53.448C40.1879 53.5743 40.3067 53.7427 40.3727 53.9337C40.4387 54.1247 40.4493 54.3305 40.4032 54.5272C40.3474 54.7598 40.2274 54.972 40.0569 55.1397C39.8864 55.3074 39.6722 55.4239 39.4387 55.4758L35.502 56.2905C35.3511 56.318 35.1961 56.3127 35.0475 56.275C34.8988 56.2374 34.76 56.1682 34.6404 56.0721C34.5209 55.9761 34.4233 55.8555 34.3545 55.7185C34.2856 55.5815 34.247 55.4313 34.2412 55.278L34.187 51.2582C34.1873 51.0191 34.2547 50.7848 34.3817 50.5821C34.5086 50.3794 34.69 50.2164 34.905 50.1118C35.0872 50.0243 35.2904 49.9902 35.4911 50.0134C35.6919 50.0367 35.8819 50.1163 36.0393 50.243Z" fill="#FCA311"/>
<path d="M321.726 76.9157L317.229 78.8908C317.052 78.9691 316.856 78.9954 316.664 78.9669C316.472 78.9384 316.292 78.8562 316.145 78.7297C315.972 78.5791 315.845 78.3829 315.778 78.1634C315.711 77.944 315.706 77.7101 315.766 77.4884L316.818 73.777C316.861 73.6364 316.935 73.5068 317.033 73.397C317.131 73.2872 317.251 73.1998 317.386 73.1406C317.521 73.0814 317.666 73.0519 317.814 73.0541C317.961 73.0562 318.106 73.0899 318.239 73.153L321.683 74.8893C321.887 74.9956 322.056 75.1568 322.173 75.3547C322.289 75.5526 322.347 75.7792 322.341 76.0086C322.334 76.2024 322.273 76.3905 322.165 76.551C322.056 76.7115 321.904 76.838 321.726 76.9157Z" fill="#FCA311"/>
</svg>
