<svg width="29" height="28" viewBox="0 0 29 28" fill="none" xmlns="http://www.w3.org/2000/svg">
<path fill-rule="evenodd" clip-rule="evenodd" d="M13.3346 2.33301C12.4064 2.33301 11.5161 2.70176 10.8598 3.35813C10.2034 4.01451 9.83463 4.90475 9.83463 5.83301V22.1663C9.83463 23.0946 10.2034 23.9848 10.8598 24.6412C11.5161 25.2976 12.4064 25.6663 13.3346 25.6663H20.3346C21.2629 25.6663 22.1531 25.2976 22.8095 24.6412C23.4659 23.9848 23.8346 23.0946 23.8346 22.1663V5.83301C23.8346 4.90475 23.4659 4.01451 22.8095 3.35813C22.1531 2.70176 21.2629 2.33301 20.3346 2.33301H13.3346ZM14.8431 9.67484C15.0619 9.45613 15.3586 9.33326 15.668 9.33326C15.9773 9.33326 16.274 9.45613 16.4928 9.67484L19.9928 13.1748C20.2115 13.3936 20.3344 13.6903 20.3344 13.9997C20.3344 14.309 20.2115 14.6057 19.9928 14.8245L16.4928 18.3245C16.2728 18.537 15.9781 18.6546 15.6722 18.652C15.3663 18.6493 15.0737 18.5266 14.8573 18.3103C14.641 18.094 14.5183 17.8014 14.5157 17.4955C14.513 17.1896 14.6306 16.8949 14.8431 16.6748L16.3516 15.1663H6.33464C6.02522 15.1663 5.72847 15.0434 5.50968 14.8246C5.29089 14.6058 5.16797 14.3091 5.16797 13.9997C5.16797 13.6903 5.29089 13.3935 5.50968 13.1747C5.72847 12.9559 6.02522 12.833 6.33464 12.833H16.3516L14.8431 11.3245C14.6244 11.1057 14.5015 10.809 14.5015 10.4997C14.5015 10.1903 14.6244 9.89362 14.8431 9.67484Z" fill="#14213D"/>
</svg>
