<svg width="21" height="26" viewBox="0 0 21 26" fill="none" xmlns="http://www.w3.org/2000/svg">
<path d="M10.5 0.166992L0 4.83366V11.8337C0 18.3087 4.48 24.3637 10.5 25.8337C16.52 24.3637 21 18.3087 21 11.8337V4.83366L10.5 0.166992ZM10.5 7.16699C12.1333 7.16699 13.7667 8.45033 13.7667 10.0837V11.8337C14.4667 11.8337 15.1667 12.5337 15.1667 13.3503V17.4337C15.1667 18.1337 14.4667 18.8337 13.65 18.8337H7.23333C6.53333 18.8337 5.83333 18.1337 5.83333 17.317V13.2337C5.83333 12.5337 6.53333 11.8337 7.23333 11.8337V10.0837C7.23333 8.45033 8.86667 7.16699 10.5 7.16699ZM10.5 8.56699C9.56667 8.56699 8.75 9.15032 8.75 10.0837V11.8337H12.25V10.0837C12.25 9.15032 11.4333 8.56699 10.5 8.56699Z" fill="#FCA311"/>
</svg>
