<svg width="29" height="28" viewBox="0 0 29 28" fill="none" xmlns="http://www.w3.org/2000/svg">
<g clip-path="url(#clip0_202_2042)">
<path d="M8.31641 13.9998C8.32077 15.2928 8.48271 16.5805 8.79863 17.8343H13.8386V10.4609H8.72863C8.45976 11.6215 8.3215 12.8085 8.31641 13.9998Z" fill="#FCA311"/>
<path d="M15.1602 10.4609V17.8343H20.2002C20.5292 16.5821 20.7042 15.2944 20.7213 13.9998C20.7187 12.8088 20.5831 11.6218 20.3168 10.4609H15.1602Z" fill="#FCA311"/>
<path d="M14.4991 1.55566C12.0379 1.55566 9.63185 2.28552 7.58537 3.65293C5.5389 5.02034 3.94386 6.9639 3.00197 9.23782C2.06008 11.5118 1.81364 14.0139 2.29381 16.4279C2.77398 18.8419 3.9592 21.0593 5.69959 22.7997C7.43997 24.54 9.65736 25.7253 12.0713 26.2054C14.4853 26.6856 16.9875 26.4392 19.2614 25.4973C21.5353 24.5554 23.4789 22.9603 24.8463 20.9139C26.2137 18.8674 26.9436 16.4614 26.9436 14.0001C26.9436 10.6996 25.6325 7.53434 23.2987 5.20056C20.9649 2.86677 17.7996 1.55566 14.4991 1.55566ZM24.0036 19.219H21.188C20.6557 20.8856 19.8686 22.4598 18.8547 23.8857C18.1065 24.2117 17.3237 24.4518 16.5214 24.6012C17.9583 23.0398 19.0642 21.2037 19.7725 19.2034H15.168V24.7646H13.8536V19.219H9.2258C9.93312 21.222 11.0391 23.0609 12.4769 24.6246C11.6911 24.4767 10.9242 24.242 10.1902 23.9246C9.17278 22.4868 8.38556 20.8992 7.85691 19.219H4.99469C4.74622 18.7657 4.53049 18.2953 4.34914 17.8112H7.46025C7.16873 16.5616 7.01742 15.2833 7.00914 14.0001C7.00957 12.8107 7.1347 11.6246 7.38247 10.4612H4.20136C4.36492 9.9786 4.56245 9.50816 4.79247 9.05344H7.7558C8.31183 7.20159 9.17413 5.45595 10.3069 3.889C11.0252 3.59135 11.7737 3.3723 12.5391 3.23566C10.9919 4.89626 9.82417 6.8734 9.11692 9.03011H13.8536V3.11122H15.168V9.05344H19.9047C19.1987 6.90019 18.0337 4.92584 16.4902 3.26677C17.2545 3.39355 18.0029 3.60216 18.7225 3.889C19.8487 5.44463 20.7082 7.1768 21.2658 9.01455H24.198C24.428 9.46928 24.6255 9.93972 24.7891 10.4223H21.6314C21.8845 11.5981 22.0122 12.7974 22.0125 14.0001C22.0085 15.2908 21.8598 16.577 21.5691 17.8346H24.6802C24.4878 18.3115 24.2617 18.7741 24.0036 19.219Z" fill="#FCA311"/>
</g>
<defs>
<clipPath id="clip0_202_2042">
<rect width="28" height="28" fill="white" transform="translate(0.5)"/>
</clipPath>
</defs>
</svg>
