<svg width="25" height="24" viewBox="0 0 25 24" fill="none" xmlns="http://www.w3.org/2000/svg">
<path d="M0.832044 11.9999C0.83263 9.44214 1.67377 6.95541 3.22603 4.92246C4.77828 2.88952 6.9556 1.42303 9.42291 0.748693C11.8902 0.0743553 14.5108 0.229542 16.8812 1.19037C19.2517 2.1512 21.2408 3.86441 22.5422 6.06635C23.8437 8.26829 24.3855 10.8369 24.0842 13.3769C23.7829 15.9169 22.6552 18.2875 20.8747 20.1238C19.0942 21.9602 16.7595 23.1605 14.2301 23.5401C11.7006 23.9197 9.11645 23.4575 6.87538 22.2246L2.33938 23.6059C2.13706 23.6676 1.92179 23.673 1.71659 23.6218C1.5114 23.5705 1.32401 23.4644 1.17446 23.3149C1.0249 23.1653 0.918816 22.9779 0.867545 22.7727C0.816274 22.5675 0.821747 22.3523 0.883378 22.1499L2.26471 17.6069C1.32194 15.8887 0.829099 13.9599 0.832044 11.9999ZM7.83205 10.8333C7.83205 11.1427 7.95496 11.4394 8.17375 11.6582C8.39255 11.877 8.68929 11.9999 8.99871 11.9999H15.9987C16.3081 11.9999 16.6049 11.877 16.8237 11.6582C17.0425 11.4394 17.1654 11.1427 17.1654 10.8333C17.1654 10.5239 17.0425 10.2271 16.8237 10.0083C16.6049 9.78952 16.3081 9.6666 15.9987 9.6666H8.99871C8.68929 9.6666 8.39255 9.78952 8.17375 10.0083C7.95496 10.2271 7.83205 10.5239 7.83205 10.8333ZM8.99871 14.3333C8.68929 14.3333 8.39255 14.4562 8.17375 14.675C7.95496 14.8938 7.83205 15.1905 7.83205 15.4999C7.83205 15.8094 7.95496 16.1061 8.17375 16.3249C8.39255 16.5437 8.68929 16.6666 8.99871 16.6666H13.6654C13.9748 16.6666 14.2715 16.5437 14.4903 16.3249C14.7091 16.1061 14.832 15.8094 14.832 15.4999C14.832 15.1905 14.7091 14.8938 14.4903 14.675C14.2715 14.4562 13.9748 14.3333 13.6654 14.3333H8.99871Z" fill="#14213D"/>
</svg>
