<svg width="60" height="56" viewBox="0 0 60 56" fill="none" xmlns="http://www.w3.org/2000/svg">
<path d="M22.1104 14.999C24.9904 12.119 28.6904 10.709 32.4604 10.709C36.1604 10.709 39.8504 12.109 42.7304 14.999C45.5404 17.809 46.9404 21.579 46.9404 25.269C46.9404 29.039 45.5304 32.729 42.7304 35.539C39.8504 38.419 36.1504 39.829 32.4604 39.829C28.6904 39.829 24.9904 38.419 22.1104 35.539C19.3004 32.729 17.9004 29.039 17.9004 25.269C17.9004 21.579 19.3104 17.809 22.1104 14.999ZM32.4604 11.669C28.9104 11.669 25.4404 12.999 22.7804 15.659C20.1204 18.319 18.7904 21.789 18.7904 25.269C18.7904 28.739 20.1204 32.219 22.7804 34.879C25.4404 37.539 28.9104 38.869 32.4604 38.869C35.9304 38.869 39.4104 37.539 42.0704 34.879C44.7304 32.219 46.0604 28.749 46.0604 25.269C46.0604 21.789 44.7304 18.319 42.0704 15.659C39.4104 12.999 35.9404 11.669 32.4604 11.669Z" fill="#FCA311"/>
<path d="M44.1414 40.8688L47.9814 36.9488C48.3514 36.6588 48.7214 36.5088 49.0914 36.5088C49.5414 36.5088 49.9114 36.6588 50.2014 36.9488L59.2214 46.0388C59.5114 46.3288 59.6614 46.6988 59.6614 47.0788C59.6614 47.5188 59.5114 47.8888 59.2214 48.1888L55.3814 52.1088C55.0814 52.4088 54.6414 52.5488 54.2714 52.5488C53.8314 52.5488 53.4614 52.3988 53.1614 52.1088L44.1414 43.0888C43.8414 42.7888 43.6914 42.3488 43.6914 41.9788C43.6914 41.5288 43.8414 41.1588 44.1414 40.8688ZM48.6514 37.6088L44.8114 41.5288C44.6614 41.5988 44.5914 41.7488 44.5914 41.9688C44.5914 42.1188 44.6614 42.2688 44.8114 42.4088L53.8314 51.4288C53.9014 51.4988 54.1214 51.5788 54.2714 51.5788C54.4214 51.5788 54.5714 51.5088 54.7114 51.4288L58.5514 47.5088C58.7014 47.4388 58.7714 47.2888 58.7714 47.0688C58.7714 46.9188 58.7014 46.7688 58.5514 46.6988L49.5314 37.6088C49.4514 37.5388 49.2314 37.4588 49.0814 37.4588C48.9414 37.4688 48.7914 37.5388 48.6514 37.6088Z" fill="#FCA311"/>
<path d="M43.9892 33.5489L47.9792 37.6089C48.1992 37.7589 48.1992 38.0489 47.9792 38.2789L45.3892 40.8689C45.2392 41.0889 44.9492 41.0889 44.7292 40.8689L40.7392 36.8089C40.5192 36.6589 40.5192 36.3688 40.7392 36.1488H40.8092C41.0292 35.9288 41.2592 35.7789 41.4792 35.5589C41.6992 35.4089 41.9192 35.1889 42.1492 34.9689C42.3692 34.7489 42.5192 34.5289 42.7392 34.3089C42.8892 34.0889 43.1092 33.8688 43.2592 33.6388C43.4092 33.4188 43.6992 33.4189 43.9292 33.5689H43.9892V33.5489ZM47.0192 37.9089L43.6892 34.5788L43.3992 34.9488C43.2492 35.1688 43.0292 35.3889 42.8092 35.6189C42.5892 35.8389 42.2892 36.0689 42.0692 36.2889L41.7792 36.5888L45.1092 39.9089L47.0192 37.9089Z" fill="#FCA311"/>
<path d="M32.4597 15.8086C35.0397 15.8086 37.4097 16.8486 39.1097 18.5486C40.8797 20.3186 41.9197 22.6886 41.9197 25.2786C41.9197 27.9386 40.8797 30.2986 39.1097 31.9986C37.4097 33.6986 35.0397 34.8086 32.4597 34.8086C29.7997 34.8086 27.4297 33.6986 25.7297 31.9986H25.6597C23.9597 30.2186 22.9297 27.8586 22.9297 25.2786C22.9297 22.6886 23.9697 20.3286 25.7397 18.5486C27.4397 16.8486 29.7997 15.8086 32.4597 15.8086ZM38.4497 19.2086C36.8997 17.6586 34.7497 16.6985 32.4597 16.6985C30.0997 16.6985 27.9497 17.6586 26.3997 19.2086C24.8497 20.7586 23.8897 22.8986 23.8897 25.2686C23.8897 27.6286 24.8497 29.7686 26.3297 31.3286H26.3997C27.9497 32.8786 30.0997 33.8386 32.4597 33.8386C34.7497 33.8386 36.8897 32.8786 38.4497 31.3286C39.9997 29.7786 40.9597 27.6286 40.9597 25.2686C40.9597 22.9086 39.9997 20.7586 38.4497 19.2086Z" fill="#14213D"/>
<path d="M37.27 33.4786C36.61 33.8486 35.79 34.2187 34.98 34.4387C34.17 34.6587 33.28 34.8087 32.47 34.8087C31.58 34.8087 30.84 34.6587 30.03 34.4387C29.22 34.2887 28.48 33.9986 27.81 33.5486C27.66 33.4786 27.59 33.3286 27.59 33.1786V31.6986C27.59 30.8886 27.89 30.0687 28.48 29.5587C29.07 28.9687 29.81 28.5986 30.7 28.5986H34.47C35.28 28.5986 36.1 28.9687 36.61 29.5587C37.2 30.0787 37.57 30.8886 37.57 31.6986V33.0286C37.56 33.1786 37.41 33.3286 37.27 33.4786ZM34.68 33.5486C35.34 33.3286 36.01 33.1086 36.6 32.7386V31.6986C36.6 31.1086 36.38 30.5886 35.93 30.2186C35.56 29.7786 35.04 29.5587 34.45 29.5587H30.68C30.09 29.5587 29.5 29.7786 29.13 30.2186C28.76 30.5886 28.47 31.1086 28.47 31.6986V32.8787C29.06 33.1787 29.65 33.3986 30.24 33.5486C30.98 33.7686 31.64 33.8486 32.46 33.8486C33.2 33.8486 34.01 33.6986 34.68 33.5486Z" fill="#14213D"/>
<path d="M33.94 32.5894C33.94 32.3694 34.16 32.1494 34.38 32.1494C34.68 32.1494 34.9 32.3694 34.9 32.5894V34.0695C34.9 34.3695 34.68 34.5894 34.38 34.5894C34.16 34.5894 33.94 34.3695 33.94 34.0695V32.5894ZM31.13 34.1394C31.13 34.3594 30.91 34.5794 30.69 34.5794C30.39 34.5794 30.25 34.3594 30.25 34.1394V32.5894C30.25 32.3694 30.4 32.1494 30.69 32.1494C30.91 32.1494 31.13 32.3694 31.13 32.5894V34.1394Z" fill="#FCA311"/>
<path d="M32.6097 21.4287C33.4997 21.4287 34.3097 21.7987 34.8997 22.3887C35.4897 22.9787 35.7897 23.7187 35.7897 24.5987C35.7897 25.4887 35.4197 26.2987 34.8997 26.8887C34.3097 27.4787 33.4997 27.8487 32.6097 27.8487C31.7197 27.8487 30.9097 27.4787 30.3197 26.8887C29.7997 26.2987 29.4297 25.4887 29.4297 24.5987C29.4297 23.7087 29.7997 22.9787 30.3197 22.3887C30.9097 21.7987 31.7197 21.4287 32.6097 21.4287ZM34.2397 23.0487C33.7997 22.6087 33.2797 22.3887 32.6097 22.3887C32.0197 22.3887 31.4297 22.6087 30.9797 23.0487C30.6097 23.4187 30.3897 24.0087 30.3897 24.5987C30.3897 25.2687 30.6097 25.7887 30.9797 26.2287C31.4197 26.5987 32.0097 26.8987 32.6097 26.8987C33.1997 26.8987 33.7897 26.6087 34.2397 26.2287C34.6097 25.7887 34.8997 25.2687 34.8997 24.5987C34.8997 24.0087 34.5997 23.4187 34.2397 23.0487Z" fill="#FCA311"/>
<path d="M31.649 28.5986H33.419C33.709 28.5986 33.859 28.8187 33.859 29.1187C33.859 29.1187 33.859 29.1886 33.859 29.2686L33.049 32.4486C32.979 32.6686 32.679 32.8187 32.459 32.8187C32.239 32.7487 32.159 32.5986 32.089 32.4486L31.199 29.1986C31.119 28.9786 31.269 28.7586 31.569 28.6786C31.569 28.5986 31.649 28.5986 31.649 28.5986ZM32.829 29.5587H32.309L32.529 30.5186L32.829 29.5587Z" fill="#FCA311"/>
<path d="M24.4794 17.289L24.3294 17.439C23.8894 17.879 24.5494 18.469 24.9894 18.109C25.2894 17.809 25.5094 17.589 25.7994 17.369C26.2394 16.849 25.4994 16.259 25.1294 16.629C24.9194 16.849 24.6994 17.069 24.4794 17.289ZM22.6294 21.869C22.8494 21.349 22.0394 20.979 21.7394 21.569C21.6694 21.869 21.5894 22.1589 21.5194 22.5289C21.3694 23.1889 22.3294 23.269 22.4094 22.749C22.4794 22.469 22.5594 22.169 22.6294 21.869ZM22.2594 27.189C22.1894 26.599 21.2294 26.7489 21.3694 27.4089C21.3694 27.7089 21.4394 27.999 21.5894 28.299C21.8094 29.039 22.6194 28.5189 22.4794 28.0789C22.4094 27.7889 22.3394 27.489 22.2594 27.189ZM24.5494 31.999C24.1094 31.559 23.5094 32.219 23.8794 32.669C24.0994 32.889 24.3194 33.1189 24.5494 33.3389C24.6994 33.5589 24.9894 33.5589 25.2194 33.3389C25.3694 33.1889 25.3694 32.889 25.2194 32.669C24.9994 32.439 24.7694 32.219 24.5494 31.999ZM28.9894 35.0289C28.4694 34.8089 28.0994 35.699 28.6894 35.919C28.9894 36.069 29.2794 36.1389 29.6494 36.2089C30.3094 36.3589 30.3894 35.399 29.8694 35.319C29.5794 35.249 29.2794 35.0989 28.9894 35.0289ZM34.3094 35.4689C33.7194 35.5389 33.8694 36.509 34.4594 36.359C34.8294 36.289 35.1294 36.2089 35.4194 36.1389C36.0894 35.9189 35.7894 35.099 35.1994 35.249C34.8994 35.319 34.5994 35.3989 34.3094 35.4689ZM39.1094 33.179C38.5894 33.619 39.3294 34.2089 39.7694 33.8389C39.9894 33.6889 40.2094 33.399 40.4294 33.179C40.8694 32.729 40.2094 32.0689 39.7694 32.5089C39.6294 32.7389 39.3394 32.959 39.1094 33.179ZM42.1394 28.749C41.9194 29.339 42.7994 29.709 43.0294 29.049C43.1794 28.749 43.2494 28.4589 43.3294 28.1589C43.4794 27.4189 42.5194 27.419 42.4394 27.939C42.3694 28.229 42.2894 28.449 42.1394 28.749ZM42.5894 23.419C42.7394 24.009 43.6194 23.8689 43.5494 23.2689C43.4794 22.9789 43.3994 22.609 43.3294 22.309C43.0294 21.719 42.2994 21.9389 42.4394 22.5289C42.5094 22.8289 42.5094 23.129 42.5894 23.419ZM40.2994 18.619C40.8194 19.129 41.4094 18.3989 41.0394 18.0289C40.8194 17.7289 40.5994 17.509 40.3794 17.289C39.9394 16.849 39.2694 17.5089 39.7094 17.9589C39.9294 18.1789 40.1494 18.399 40.2994 18.619ZM35.9394 15.5889C36.5294 15.8089 36.8294 14.8489 36.3094 14.6989C36.0094 14.5489 35.6394 14.4789 35.3494 14.4089C34.6094 14.2589 34.6094 15.219 35.0494 15.299C35.3394 15.369 35.6394 15.4389 35.9394 15.5889ZM30.6094 15.069C31.1994 14.999 31.0594 14.039 30.4594 14.179C30.0894 14.249 29.7994 14.3289 29.4994 14.3989C28.8394 14.6189 29.1294 15.429 29.7194 15.289C30.0194 15.219 30.3194 15.149 30.6094 15.069Z" fill="#FCA311"/>
<path d="M53.08 45.9689C53.52 45.5289 54.04 45.3789 54.56 45.3789C55.08 45.3789 55.6 45.5289 55.97 45.9689C56.41 46.3389 56.56 46.8589 56.56 47.3789C56.56 47.8989 56.41 48.4089 55.97 48.8589C55.6 49.2289 55.08 49.4489 54.56 49.4489C54.04 49.4489 53.53 49.2289 53.08 48.8589C52.71 48.4189 52.49 47.8989 52.49 47.3789C52.49 46.8489 52.71 46.3289 53.08 45.9689ZM54.56 46.3289C54.26 46.3289 53.97 46.3989 53.75 46.6289C53.53 46.8489 53.45 47.1489 53.45 47.3689C53.45 47.6589 53.52 47.9589 53.75 48.1789C53.97 48.3989 54.27 48.4789 54.56 48.4789C54.78 48.4789 55.08 48.3989 55.3 48.1789C55.52 47.9589 55.67 47.6589 55.67 47.3689C55.67 47.1489 55.52 46.8489 55.3 46.6289C55.08 46.4089 54.78 46.3289 54.56 46.3289Z" fill="#14213D"/>
<path d="M30.6904 46.2593C31.4304 46.2593 31.3604 45.2994 30.7604 45.2994C30.4604 45.2994 30.1704 45.2994 29.8704 45.2294C29.2804 45.1494 29.1304 46.0394 29.7204 46.1894C30.1004 46.1894 30.3904 46.2593 30.6904 46.2593ZM52.4904 25.1993C52.4904 25.7893 53.4504 25.7893 53.4504 25.1993C53.4504 24.8293 53.4504 24.5294 53.4504 24.2394C53.4504 23.6494 52.4904 23.5794 52.4904 24.2394C52.4904 24.5294 52.4904 24.8993 52.4904 25.1993ZM52.1204 21.4994C52.2704 22.0894 53.1504 22.0194 53.0804 21.3494C53.0104 21.0594 52.9304 20.6793 52.8604 20.3893C52.7904 19.8693 51.8204 19.9494 51.9704 20.6094C52.0504 20.9094 52.1204 21.2094 52.1204 21.4994ZM51.1604 18.0294C51.3804 18.5494 52.2704 18.2494 52.0504 17.6594C51.9004 17.3594 51.7504 17.0693 51.6804 16.7693C51.4604 16.2493 50.5704 16.4693 50.7904 17.1393C50.9404 17.3693 51.0104 17.7294 51.1604 18.0294ZM49.4604 14.6993C49.8304 15.2193 50.6404 14.7794 50.2704 14.1794L49.7504 13.3694C49.4504 12.9294 48.6404 13.3694 49.0104 13.9594L49.4604 14.6993ZM47.2404 11.7494C47.7604 12.2694 48.3504 11.5294 47.9804 11.1594C47.7604 10.9394 47.5404 10.7094 47.3204 10.4194C46.8804 10.0494 46.2104 10.7194 46.6604 11.1594C46.8704 11.2994 47.1004 11.5294 47.2404 11.7494ZM44.5804 9.30939C45.1704 9.67939 45.5404 8.7894 45.1004 8.5694C44.8804 8.3494 44.5804 8.19937 44.3604 7.97937C43.7704 7.60937 43.3204 8.49937 43.8404 8.78937C44.0704 8.93937 44.2904 9.08939 44.5804 9.30939ZM41.4104 7.38934C41.9304 7.60934 42.4404 6.86939 41.8504 6.49939C41.5504 6.34939 41.2604 6.19939 40.9604 6.12939C40.3704 5.82939 40.0704 6.71939 40.5904 6.93939C40.8904 7.08939 41.1804 7.23934 41.4104 7.38934ZM38.0004 6.05939C38.5204 6.20939 38.8904 5.31937 38.3004 5.09937C38.0004 5.02937 37.6304 4.94939 37.3404 4.87939C36.6804 4.72939 36.6004 5.68935 37.1204 5.76935C37.4104 5.82935 37.7104 5.90939 38.0004 6.05939ZM34.3804 5.3194C34.9704 5.3994 35.1904 4.50938 34.5304 4.35938C34.1604 4.35938 33.8704 4.35938 33.5704 4.35938C32.8304 4.35938 32.9104 5.23938 33.5004 5.23938C33.7904 5.31938 34.0904 5.3194 34.3804 5.3194ZM30.7604 5.3194C31.3504 5.1694 31.2804 4.35938 30.6904 4.35938C30.3204 4.35938 30.0304 4.42934 29.7304 4.50934C29.0604 4.57934 29.2904 5.46935 29.8004 5.39935C30.1004 5.38935 30.4704 5.3194 30.7604 5.3194ZM27.1404 5.90936C27.7304 5.68936 27.4304 4.94935 26.8404 5.01935C26.5404 5.08935 26.2504 5.2394 25.9504 5.3194C25.2904 5.5394 25.7304 6.42935 26.2504 6.20935C26.5504 6.12935 26.8404 6.05936 27.1404 5.90936ZM23.6704 7.23938C24.2604 6.86938 23.8204 6.12937 23.3004 6.34937C23.0104 6.49937 22.7104 6.63937 22.4104 6.78937C21.8204 7.15937 22.3404 7.96938 22.8504 7.67938C23.1504 7.52938 23.3704 7.38938 23.6704 7.23938ZM20.5604 9.15936C21.0004 8.86936 20.5604 7.97937 19.9704 8.34937C19.7504 8.56937 19.4504 8.78939 19.2304 8.93939C18.7104 9.45939 19.4504 10.0494 19.8204 9.67938C20.0504 9.52938 20.2704 9.30936 20.5604 9.15936ZM17.7504 11.5994C18.1904 11.1594 17.5304 10.4894 17.0904 10.9294C16.8704 11.1494 16.6504 11.3694 16.4204 11.6694C16.0504 12.0394 16.6404 12.7793 17.1604 12.2593L17.7504 11.5994ZM15.5404 14.4794C15.8404 13.8894 15.0204 13.4394 14.7304 13.9594C14.5804 14.2594 14.4304 14.4793 14.2104 14.7693C13.9104 15.2893 14.7304 15.7294 15.0204 15.2094C15.1704 14.9994 15.3904 14.6994 15.5404 14.4794ZM13.8404 17.7294C14.0604 17.1394 13.1804 16.7694 12.9504 17.3594C12.8004 17.6594 12.7304 17.9494 12.5804 18.2394C12.3604 18.8294 13.3204 19.1994 13.4704 18.5394C13.6204 18.3294 13.6904 18.0294 13.8404 17.7294ZM12.7304 21.2094C12.8804 20.6194 11.9204 20.4694 11.8404 21.0594C11.7704 21.3494 11.6904 21.6493 11.6904 22.0193C11.5404 22.6093 12.5004 22.7594 12.5804 22.1694C12.6504 21.7994 12.7304 21.4994 12.7304 21.2094ZM12.3604 24.8994C12.3604 24.2294 11.4004 24.2294 11.4004 24.8994C11.4004 25.1994 11.4004 25.4894 11.4004 25.8594C11.4004 26.3794 12.3604 26.4494 12.3604 25.7894C12.3604 25.4994 12.3604 25.1994 12.3604 24.8994ZM12.5804 28.5294C12.5104 27.9394 11.5504 28.0894 11.6904 28.6794C11.6904 29.0494 11.7604 29.3493 11.8404 29.6393C11.9104 30.2293 12.8704 30.1594 12.8004 29.4894C12.7304 29.1894 12.6504 28.8194 12.5804 28.5294ZM13.5404 32.0694C13.2504 31.4794 12.4304 31.8494 12.6504 32.4394C12.7204 32.7394 12.8704 33.0293 12.9504 33.3293C13.1704 33.9193 14.0604 33.5494 13.8404 32.9594C13.7604 32.6594 13.6204 32.3694 13.5404 32.0694ZM15.0904 35.4694C14.7204 34.8794 13.9104 35.3994 14.2804 35.9194C14.4304 36.2094 14.5704 36.4394 14.8004 36.7294C15.1004 37.2394 15.9104 36.7294 15.5404 36.2094C15.3904 35.9894 15.2404 35.6894 15.0904 35.4694ZM17.2404 38.4294C16.7204 37.9094 16.1304 38.6493 16.5004 39.0193C16.7204 39.3093 16.9404 39.5393 17.1704 39.7593C17.6104 40.1993 18.2804 39.5394 17.8304 39.0894C17.6104 38.8694 17.3904 38.6494 17.2404 38.4294ZM19.8204 41.0093C19.4504 40.5693 18.7904 41.2294 19.2304 41.6794C19.5304 41.8994 19.7504 42.1193 20.0404 42.2693C20.6304 42.6393 21.0004 41.8294 20.5604 41.5294C20.3404 41.3794 20.1204 41.1593 19.8204 41.0093ZM22.9304 43.0093C22.4104 42.7193 21.9004 43.5294 22.4904 43.8194C22.7904 43.9694 23.0104 44.1193 23.3004 44.2693C23.9704 44.5693 24.2604 43.5993 23.7404 43.4594L22.9304 43.0093ZM26.3304 44.4194C25.8104 44.2694 25.3704 45.0794 26.0304 45.3794L26.9204 45.5994C27.6604 45.7494 27.6604 44.7894 27.1404 44.7094C26.8404 44.6293 26.5504 44.5594 26.3304 44.4194Z" fill="#14213D"/>
<path d="M17.1609 4.94897L17.9009 4.49902C17.9709 4.49902 18.1209 4.49903 18.2009 4.56903L18.5709 5.38898C18.6409 5.45898 18.6409 5.60901 18.5009 5.60901L17.7609 6.04901C17.6909 6.11901 17.5409 6.119 17.5409 5.979L17.1009 5.23901C17.0209 5.16901 17.0209 5.01897 17.1609 4.94897ZM17.9009 5.01898L17.5309 5.23901L17.7509 5.60901L18.1209 5.38898L17.9009 5.01898Z" fill="#FCA311"/>
<path d="M16.7208 4.64868L16.3508 4.86872L16.5708 5.30872L16.9408 5.08869L16.7208 4.64868ZM15.9808 4.64868L16.7208 4.20868C16.7908 4.13868 16.9408 4.20869 17.0208 4.27869L17.3908 5.01868C17.4608 5.16868 17.4608 5.23873 17.3208 5.31873L16.5808 5.76868C16.5108 5.83868 16.3608 5.76872 16.3608 5.68872L15.9208 4.94867C15.8308 4.79867 15.8308 4.72868 15.9808 4.64868Z" fill="#FCA311"/>
<path d="M17.6809 4.12903L16.9409 4.56903C16.7909 4.63903 16.7209 4.56903 16.6409 4.49903L16.2009 3.75897C16.1309 3.68897 16.2009 3.539 16.2709 3.469L17.0109 3.02899C17.0809 2.95899 17.2309 3.029 17.3109 3.099L17.7509 3.83899C17.7509 3.98899 17.7509 4.05903 17.6809 4.12903ZM16.8709 4.12903L17.3109 3.909L17.0109 3.469L16.6409 3.68903L16.8709 4.12903Z" fill="#FCA311"/>
<path d="M18.0506 4.42907L18.4906 4.20904L18.1906 3.83905L17.8206 4.05908L18.0506 4.42907ZM18.8606 4.42907L18.1206 4.86908C17.9706 4.94908 17.9006 4.94907 17.8206 4.79907L17.3806 4.05908C17.3106 3.98908 17.3806 3.83903 17.4506 3.75903L18.1906 3.38903C18.2606 3.31903 18.4106 3.31905 18.4906 3.46905L18.9306 4.20904C18.9406 4.27904 18.9406 4.42907 18.8606 4.42907Z" fill="#FCA311"/>
<path d="M50.7186 33.2592L51.4586 32.8093C51.5286 32.7393 51.6786 32.8093 51.7586 32.8793L52.1986 33.6193C52.1986 33.7693 52.1986 33.8392 52.1286 33.9092L51.3886 34.3492C51.2386 34.4192 51.1686 34.3492 51.0886 34.2792L50.6486 33.5392C50.5686 33.4792 50.6386 33.3292 50.7186 33.2592ZM51.4486 33.2592L51.0786 33.4792L51.2986 33.9193L51.7386 33.6992L51.4486 33.2592Z" fill="#FCA311"/>
<path d="M50.2692 32.9592L49.8992 33.1893L50.1192 33.6293L50.5592 33.3392L50.2692 32.9592ZM49.5292 32.9592L50.2692 32.5192C50.3392 32.4492 50.4892 32.5192 50.5692 32.5892L51.0092 33.3292C51.0092 33.3992 51.0092 33.5493 50.9392 33.6193L50.1992 34.0593C50.0492 34.0593 49.9792 34.0593 49.9092 33.9893L49.4692 33.2493C49.3892 33.1093 49.4592 33.0292 49.5292 32.9592Z" fill="#FCA311"/>
<path d="M51.2297 32.4386L50.4897 32.8786C50.3397 32.9486 50.2697 32.8786 50.1897 32.8086L49.7497 32.0686C49.6797 31.9186 49.7497 31.8486 49.8197 31.7786L50.5597 31.3386C50.7097 31.2686 50.7797 31.3386 50.8597 31.4086L51.2997 32.1486C51.3797 32.2186 51.3097 32.3686 51.2297 32.4386ZM50.4197 32.4386L50.8597 32.2186L50.6397 31.7786L50.1997 31.9986L50.4197 32.4386Z" fill="#FCA311"/>
<path d="M51.6009 32.7387L52.0409 32.5187L51.8209 32.0787L51.3809 32.3787L51.6009 32.7387ZM52.4209 32.7387L51.6809 33.1887C51.5309 33.2587 51.4609 33.1887 51.3909 33.1187L50.9509 32.3787C50.8809 32.2987 50.9509 32.1587 51.0209 32.0787L51.7609 31.6387C51.9109 31.6387 51.9809 31.6387 52.0609 31.7087L52.5009 32.4487C52.5709 32.5887 52.4909 32.6587 52.4209 32.7387Z" fill="#FCA311"/>
<path d="M37.4109 48.3994L38.1509 47.9594C38.2209 47.8894 38.3709 47.9594 38.4509 48.0394L38.8909 48.7794C38.8909 48.8594 38.8909 48.9994 38.8209 49.0794L38.0109 49.5194C37.9409 49.5194 37.7909 49.5194 37.7909 49.4494L37.3509 48.7094C37.2709 48.5494 37.2709 48.4794 37.4109 48.3994ZM38.1509 48.3994L37.7809 48.6194L38.0009 49.0594L38.3709 48.7594L38.1509 48.3994Z" fill="#14213D"/>
<path d="M36.9687 48.109L36.5988 48.329L36.8188 48.699L37.1887 48.479L36.9687 48.109ZM36.2287 48.109L36.9687 47.669C37.0387 47.599 37.1887 47.599 37.2587 47.739L37.6987 48.479C37.6987 48.549 37.6987 48.699 37.6287 48.769L36.8188 49.139C36.7488 49.209 36.5988 49.209 36.5988 49.069L36.1587 48.329C36.0787 48.259 36.0787 48.109 36.2287 48.109Z" fill="#FCA311"/>
<path d="M37.9287 47.5893L37.1887 47.9593C37.0387 48.0393 36.9687 48.0393 36.8987 47.8893L36.4587 47.1493C36.3887 47.0793 36.4587 46.9293 36.5287 46.9293L37.2687 46.4893C37.3387 46.4193 37.4887 46.4193 37.5687 46.5593L38.0087 47.2993C37.9987 47.3693 37.9987 47.5193 37.9287 47.5893ZM37.1187 47.5193L37.5587 47.2993L37.2587 46.9293L36.8887 47.1493L37.1187 47.5193Z" fill="#FCA311"/>
<path d="M38.3003 47.8887L38.7503 47.6688L38.5303 47.2288L38.0903 47.4487L38.3003 47.8887ZM39.1103 47.8887L38.3703 48.3287C38.2203 48.3987 38.1503 48.3287 38.0803 48.2587L37.6403 47.5187C37.5703 47.3687 37.6403 47.2988 37.7103 47.2288L38.4503 46.7787C38.5203 46.7087 38.6703 46.7788 38.7403 46.8588L39.1803 47.5988C39.2603 47.6688 39.1903 47.8087 39.1103 47.8887Z" fill="#FCA311"/>
<path d="M7.63 15.2988C8.07 15.2988 8.44 15.5188 8.74 15.8088C9.03 16.1088 9.17999 16.4788 9.17999 16.9188C9.17999 17.3588 9.03 17.7288 8.74 18.0288C8.44 18.3288 8.07 18.4688 7.63 18.4688C7.19 18.4688 6.74 18.3188 6.52 18.0288C6.22 17.7288 6 17.3688 6 16.9188C6 16.4788 6.22 16.1088 6.52 15.8088C6.74 15.5188 7.18 15.2988 7.63 15.2988ZM8.07 16.4788C7.92 16.3288 7.77 16.2588 7.63 16.2588C7.41 16.2588 7.25999 16.3288 7.18999 16.4788C7.03999 16.5488 6.96999 16.6988 6.96999 16.9188C6.96999 17.0688 7.03999 17.2888 7.18999 17.3588C7.25999 17.5088 7.41 17.5788 7.63 17.5788C7.78 17.5788 7.93 17.5088 8.07 17.3588C8.22 17.2788 8.28999 17.0588 8.28999 16.9188C8.28999 16.6988 8.22 16.5488 8.07 16.4788Z" fill="#FCA311"/>
<path d="M56.8508 36.209C57.2908 36.209 57.7408 36.359 58.0308 36.649C58.3208 36.939 58.4708 37.309 58.4708 37.759C58.4708 38.199 58.3208 38.649 58.0308 38.939C57.7308 39.229 57.2908 39.379 56.8508 39.379C56.4108 39.379 56.0408 39.229 55.7408 38.939C55.4508 38.639 55.3008 38.199 55.3008 37.759C55.3008 37.319 55.4508 36.949 55.7408 36.649C56.0408 36.359 56.4108 36.209 56.8508 36.209ZM57.3708 37.319C57.2208 37.239 57.0708 37.169 56.8508 37.169C56.7008 37.169 56.5508 37.239 56.4108 37.319C56.3408 37.469 56.2608 37.609 56.2608 37.759C56.2608 37.979 56.3308 38.129 56.4108 38.279C56.5608 38.349 56.7108 38.429 56.8508 38.429C57.0708 38.429 57.2208 38.359 57.3708 38.279C57.4408 38.129 57.5208 37.979 57.5208 37.759C57.5208 37.609 57.4408 37.469 57.3708 37.319Z" fill="#FCA311"/>
<path d="M40.5891 8.78906C41.0291 8.78906 41.4791 9.00908 41.7691 9.30908C42.0591 9.59908 42.2091 9.96907 42.2091 10.4191C42.2091 10.8591 42.0591 11.2291 41.7691 11.5291C41.4691 11.8191 41.0291 11.9691 40.5891 11.9691C40.1491 11.9691 39.7791 11.8191 39.4791 11.5291C39.1791 11.2291 39.0391 10.8591 39.0391 10.4191C39.0391 9.97907 39.1891 9.60908 39.4791 9.30908C39.7791 9.00908 40.1491 8.78906 40.5891 8.78906ZM41.1091 9.96906C40.9591 9.81906 40.8191 9.74908 40.5891 9.74908C40.4391 9.74908 40.2991 9.81906 40.1491 9.96906C40.0791 10.0491 39.9991 10.1891 39.9991 10.4091C39.9991 10.5591 40.0691 10.7791 40.1491 10.8491C40.2991 10.9991 40.4391 11.0691 40.5891 11.0691C40.8091 11.0691 40.9591 10.9891 41.1091 10.8491C41.1891 10.7791 41.2591 10.5591 41.2591 10.4091C41.2591 10.1891 41.1791 10.0491 41.1091 9.96906Z" fill="#FCA311"/>
</svg>
