<svg width="34" height="34" viewBox="0 0 34 34" fill="none" xmlns="http://www.w3.org/2000/svg">
<path d="M16.0922 11.1143L22.6573 16.3866C22.9168 16.5944 23.1121 16.8714 23.2207 17.1855C23.3293 17.4997 23.3467 17.8382 23.2708 18.1619C23.1791 18.5445 22.9817 18.8936 22.7012 19.1695C22.4207 19.4453 22.0684 19.6369 21.6843 19.7222L15.2084 21.0625C14.9602 21.1077 14.7052 21.099 14.4607 21.037C14.2162 20.975 13.9878 20.8612 13.7911 20.7033C13.5944 20.5453 13.434 20.3469 13.3207 20.1215C13.2074 19.8961 13.1439 19.649 13.1344 19.397L13.0453 12.7844C13.0457 12.391 13.1567 12.0056 13.3655 11.6721C13.5743 11.3387 13.8726 11.0706 14.2264 10.8985C14.526 10.7546 14.8603 10.6985 15.1905 10.7367C15.5207 10.7749 15.8334 10.9058 16.0922 11.1143Z" fill="#FCA311"/>
</svg>
