<svg width="30" height="30" viewBox="0 0 30 30" fill="none" xmlns="http://www.w3.org/2000/svg">
<path d="M20.2339 12.2288L18.1427 20.385C18.0606 20.7071 17.889 20.9994 17.6476 21.228C17.4063 21.4566 17.1052 21.6122 16.7791 21.6768C16.3928 21.7512 15.9933 21.7156 15.6263 21.574C15.2592 21.4325 14.9393 21.1906 14.703 20.8761L10.8084 15.5313C10.6647 15.3239 10.5674 15.0881 10.5229 14.8398C10.4784 14.5915 10.4878 14.3365 10.5504 14.0921C10.6131 13.8478 10.7275 13.6198 10.886 13.4235C11.0445 13.2272 11.2433 13.0673 11.469 12.9547L17.4548 10.1432C17.8134 9.98119 18.2102 9.92312 18.6001 9.97563C18.99 10.0282 19.3573 10.1891 19.6602 10.4403C19.9149 10.6538 20.1041 10.9351 20.2056 11.2516C20.3071 11.5681 20.317 11.9069 20.2339 12.2288Z" fill="#FCA311"/>
</svg>
